<?xml version="1.0" encoding="utf-8"?>
<!-- Generator: Adobe Illustrator 22.0.1, SVG Export Plug-In . SVG Version: 6.00 Build 0)  -->
<svg version="1.1" id="Capa_1" xmlns="http://www.w3.org/2000/svg" xmlns:xlink="http://www.w3.org/1999/xlink" x="0px" y="0px"
	 viewBox="0 0 105 105" style="enable-background:new 0 0 105 105;" xml:space="preserve">
<style type="text/css">
	.st0{fill:#0B8BAB;}
</style>
<g>
	<polygon class="st0" points="73.5,50.5 70.7,56.7 76.7,56.7 73.8,50.5 	"/>
	<polygon class="st0" points="34.2,50.5 31.4,56.7 37.4,56.7 34.6,50.5 	"/>
	<path class="st0" d="M-1.4-1.4v107.7h107.7V-1.4H-1.4z M24.7,54.5h-6.7v7.6c0,0,0,0,0,0.1v0.1h-2.8v-18h10.8V47h-8v5h6.7V54.5z
		 M40,62.4l-1.5-3.3h-8.1l-1.3,2.8H29v0.2l-0.1,0.3h-3l8.3-18h0.6l8.2,18H40z M61,62.4l-1.6-10H59l-4.3,9.8l-0.2,0.4c0,0,0,0,0,0
		L54.3,63h-0.5l-4.7-10.4L49,52.4h-0.4l-1.5,10h-2.8l3.2-18h0.5l5.9,12.7h0.4l5.9-12.7h0.5l3.2,18H61z M79.2,62.4l-1.5-3.3h-8.1
		l-1.3,2.8h-0.1v0.2l-0.2,0.3h-3l8.3-18H74l8.2,18H79.2z M95.6,47h-8v5h6.7v2.6h-6.7l0,7.6c0,0,0,0,0,0.1v0.1h-2.8v-18h10.8V47z"/>
</g>
</svg>
